<?xml version="1.0" standalone="no"?>
<!DOCTYPE svg PUBLIC "-//W3C//DTD SVG 20010904//EN"
 "http://www.w3.org/TR/2001/REC-SVG-20010904/DTD/svg10.dtd">
<svg version="1.0" xmlns="http://www.w3.org/2000/svg"
 width="48.000000pt" height="48.000000pt" viewBox="0 0 48.000000 48.000000"
 preserveAspectRatio="xMidYMid meet">

<g transform="translate(0.000000,48.000000) scale(0.100000,-0.100000)"
fill="#000000" stroke="none">
<path d="M176 425 c-68 -24 -117 -83 -130 -157 l-7 -38 62 0 c55 0 64 -3 89
-30 15 -16 38 -30 50 -30 12 0 35 14 50 30 25 27 34 30 89 30 l62 0 -7 38 c-9
52 -28 84 -68 120 -35 30 -91 52 -131 52 -11 -1 -37 -7 -59 -15z m98 -151 c31
-30 9 -84 -34 -84 -24 0 -50 26 -50 50 0 10 7 26 16 34 8 9 24 16 34 16 10 0
26 -7 34 -16z"/>
</g>
</svg>
